<svg width="300" height="63" viewBox="0 0 300 63" fill="none" xmlns="http://www.w3.org/2000/svg" class="mx-auto max-h-[2.4rem] w-full max-w-[11.88rem] md:max-h-[3.4rem] md:max-w-[18.75rem]">
  <g clip-path="url(#clip0_4233_10021)">
    <path d="M105.258 37.5375V14.2725H111.346V37.5375H105.258Z" fill="#0C0C20">
    </path>
    <path d="M131.342 13.8528L131.284 13.7935C133.805 13.7935 135.842 14.695 137.395 16.4982C138.949 18.3013 139.723 20.7327 139.717 23.7925V37.5376H133.633V24.7309C133.633 23.0493 133.196 21.7544 132.321 20.8462C131.858 20.3801 131.306 20.0167 130.699 19.7789C130.092 19.5411 129.444 19.434 128.795 19.4642C128.081 19.4376 127.369 19.5565 126.701 19.8142C126.032 20.0719 125.42 20.463 124.901 20.965C124.393 21.4588 123.992 22.0571 123.725 22.7204C123.458 23.3837 123.331 24.0972 123.353 24.8142V37.5773H117.261V14.3122H123.372V17.8009C125.88 15.1688 128.537 13.8528 131.342 13.8528Z" fill="#0C0C20">
    </path>
    <path d="M153.883 38.1949H153.999C149.956 38.1949 146.535 37.1535 143.738 35.0705L145.933 31.0036C147.094 31.7506 148.353 32.324 149.672 32.7064C150.981 33.1348 152.346 33.3617 153.72 33.3796C156.094 33.3796 157.281 32.6985 157.281 31.3362C157.274 30.9958 157.178 30.6636 157.002 30.3745C156.826 30.0853 156.578 29.8498 156.283 29.6928C155.525 29.2369 154.687 28.9369 153.817 28.8097C152.927 28.6632 151.882 28.4137 150.624 28.1088C149.525 27.8206 148.445 27.4594 147.392 27.0277C146.376 26.6072 145.514 25.8719 144.927 24.9249C144.246 23.8388 143.905 22.5669 143.947 21.2778C143.947 18.9255 144.809 17.1092 146.533 15.8288C148.257 14.5484 150.43 13.9069 153.055 13.9043C156.499 13.9043 159.423 14.7253 161.825 16.3674L159.89 20.5571C157.839 19.3332 155.51 18.683 153.136 18.6722C150.914 18.6722 149.805 19.3665 149.807 20.7551C149.807 21.5049 150.258 22.0659 151.158 22.4381C152.22 22.859 153.323 23.1616 154.448 23.3409C155.753 23.5723 157.045 23.8737 158.319 24.2438C159.613 24.6194 160.762 25.3954 161.608 26.4654C162.506 27.5795 162.957 29.0222 162.959 30.7937C162.959 33.1327 162.136 34.957 160.49 36.2664C158.844 37.5759 156.641 38.2187 153.883 38.1949Z" fill="#0C0C20">
    </path>
    <path d="M180.617 13.8527C181.987 13.8163 183.348 14.0987 184.596 14.6783C185.845 15.2579 186.948 16.1197 187.824 17.1989C189.689 19.4297 190.622 22.3483 190.622 25.9545C190.622 29.5608 189.696 32.4727 187.843 34.6903C186.964 35.7684 185.856 36.6279 184.604 37.2041C183.352 37.7803 181.989 38.0582 180.617 38.0167C177.337 38.0167 174.863 36.9211 173.193 34.7299V46.1307H167.268V14.2923H173.201V17.1435C174.868 14.9523 177.34 13.8554 180.617 13.8527ZM178.736 32.3856C179.527 32.4197 180.316 32.276 181.046 31.9647C181.777 31.6534 182.433 31.182 182.966 30.5837C184.054 29.2967 184.621 27.6344 184.553 25.9347C184.614 24.254 184.047 22.6127 182.966 21.3451C182.433 20.7468 181.777 20.2754 181.046 19.9641C180.316 19.6529 179.527 19.5092 178.736 19.5433C176.974 19.5433 175.589 20.1439 174.583 21.3451C173.552 22.6365 173.016 24.2683 173.077 25.9347C173.01 27.6201 173.545 29.2729 174.583 30.5837C175.589 31.7823 176.974 32.3829 178.736 32.3856Z" fill="#0C0C20">
    </path>
    <path d="M195.135 37.5375V14.2725H201.227V37.5375H195.135Z" fill="#0C0C20">
    </path>
    <path d="M213.261 18.981C215.219 15.6942 218.014 14.0508 221.645 14.0508V20.664H220.921C218.715 20.664 216.886 21.2858 215.436 22.5292C213.986 23.7727 213.261 25.816 213.261 28.6593V37.5969H207.153V14.3319H213.261V18.981Z" fill="#0C0C20">
    </path>
    <path d="M239.259 37.5773L239.216 34.9319C237.779 36.9859 235.449 38.0075 232.226 37.997C229.615 37.997 227.532 37.3687 225.979 36.112C224.426 34.8554 223.643 33.0655 223.63 30.7423C223.593 29.6575 223.829 28.5812 224.316 27.6167C224.802 26.6521 225.523 25.8316 226.409 25.2339C228.327 23.8928 230.608 23.2004 232.93 23.2539C234.999 23.2565 237.057 23.5605 239.042 24.1568C239.119 20.7908 237.422 19.1078 233.948 19.1078C231.314 19.1551 228.714 19.7268 226.293 20.7908L224.802 16.2407C227.927 14.6851 231.356 13.8728 234.831 13.8647C238.356 13.8647 240.961 14.7465 242.646 16.51C244.33 18.2735 245.173 20.9518 245.173 24.5449V37.5891L239.259 37.5773ZM233.968 33.5301C235.261 33.5729 236.534 33.2005 237.61 32.4649C238.09 32.1289 238.477 31.6724 238.735 31.1391C238.992 30.6058 239.111 30.0137 239.081 29.4197V27.8793C237.609 27.3477 236.059 27.0797 234.498 27.0873C233.309 27.0442 232.13 27.3359 231.092 27.9307C230.673 28.1529 230.323 28.4897 230.08 28.9037C229.838 29.3176 229.712 29.7924 229.718 30.275C229.708 30.7439 229.814 31.2078 230.026 31.6234C230.239 32.0389 230.551 32.3925 230.933 32.651C231.829 33.2578 232.887 33.565 233.96 33.5301H233.968Z" fill="#0C0C20">
    </path>
    <path d="M257.837 19.8836V29.9223C257.837 31.8046 258.765 32.7457 260.62 32.7457C260.975 32.7426 261.328 32.7095 261.677 32.6467C261.956 32.6104 262.232 32.5495 262.501 32.4646L262.772 32.3457L263.732 37.0146C262.571 37.6852 260.862 38.0257 258.604 38.0363C256.421 38.0363 254.736 37.5083 253.549 36.4523C252.362 35.3963 251.762 33.8677 251.749 31.8666V19.8836H249.322V17.5591L257.547 9.10449H257.861V14.312H262.757V19.8836H257.837Z" fill="#0C0C20">
    </path>
    <path d="M267.766 37.5375V14.2725H273.854V37.5375H267.766Z" fill="#0C0C20">
    </path>
    <path d="M294.085 37.5773L294.046 34.9319C292.609 36.9859 290.278 38.0075 287.052 37.997C284.443 37.997 282.361 37.3687 280.805 36.112C279.249 34.8554 278.466 33.0655 278.456 30.7423C278.419 29.6571 278.656 28.5806 279.144 27.616C279.631 26.6514 280.352 25.8311 281.239 25.2339C283.157 23.8923 285.438 23.1998 287.761 23.2539C289.828 23.2568 291.884 23.5609 293.868 24.1568C293.946 20.7908 292.249 19.1078 288.778 19.1078C286.143 19.1558 283.541 19.7274 281.119 20.7908L279.632 16.2407C282.756 14.6851 286.183 13.8728 289.657 13.8647C293.182 13.8647 295.787 14.7465 297.472 16.51C299.157 18.2735 299.999 20.9518 299.999 24.5449V37.5891L294.085 37.5773ZM288.802 33.5301C290.095 33.5729 291.368 33.2005 292.444 32.4649C292.923 32.1287 293.31 31.672 293.567 31.1387C293.824 30.6054 293.942 30.0134 293.911 29.4197V27.8793C292.439 27.3471 290.889 27.0792 289.328 27.0873C288.139 27.0442 286.961 27.3359 285.922 27.9307C285.504 28.1538 285.155 28.491 284.913 28.9048C284.671 29.3186 284.546 29.7929 284.552 30.275C284.541 30.7435 284.646 31.2073 284.858 31.6228C285.07 32.0383 285.381 32.392 285.763 32.651C286.662 33.2597 287.724 33.567 288.802 33.5301Z" fill="#0C0C20">
    </path>
    <path d="M96.7494 14.3367V16.6732C88.5555 16.4712 80.9654 14.2021 73.6656 10.6262C69.2726 8.472 64.9376 6.09603 60.3666 4.41698C56.683 3.04623 52.7946 2.3414 48.875 2.33402C42.9802 2.33402 37.186 3.91794 31.5041 6.80875C26.8595 9.14911 22.2148 11.5608 17.3883 13.3864C11.8291 15.5108 5.93175 16.5569 -0.00195312 16.4712V14.1308C5.93167 14.2199 11.8294 13.1751 17.3883 11.05C22.2265 9.24027 26.8672 6.81274 31.5041 4.47238C37.186 1.60138 42.9802 -0.00244141 48.875 -0.00244141C52.7946 0.00494106 56.683 0.709769 60.3666 2.08052C64.9376 3.75957 69.2687 6.13554 73.6656 8.28978C80.9538 11.8657 88.5555 14.1348 96.7494 14.3367Z" fill="url(#paint0_linear_4233_10021)">
    </path>
    <path d="M73.6666 12.0232C69.2736 9.869 64.9386 7.48897 60.3675 5.81388C56.6843 4.44162 52.7958 3.73554 48.8759 3.72705C42.9811 3.72705 37.187 5.33474 31.5051 8.20574C26.8604 10.5461 22.2158 12.9578 17.3893 14.7834C11.8299 16.9066 5.93249 17.9514 -0.000976562 17.8642V21.4519C5.93249 21.5391 11.8299 20.4944 17.3893 18.3711C22.2313 16.5614 26.872 14.1339 31.5051 11.7935C37.187 8.92253 42.9811 7.3187 48.8759 7.3187C52.7956 7.32577 56.6841 8.0306 60.3675 9.40167C64.9386 11.0807 69.2697 13.4567 73.6666 15.6109C80.9664 19.1749 88.5565 21.4559 96.7504 21.6579V18.0662C88.5565 17.8682 80.9548 15.5991 73.6666 12.0232Z" fill="url(#paint1_linear_4233_10021)">
    </path>
    <path d="M73.6666 17.0007C69.2736 14.8465 64.9386 12.4705 60.3675 10.7915C56.6836 9.42226 52.7954 8.71748 48.8759 8.7085C42.9811 8.7085 37.1908 10.3123 31.5051 13.1833C26.8604 15.5276 22.2158 17.9354 17.3893 19.7609C11.8302 21.8857 5.93275 22.9318 -0.000976562 22.8457V37.2285C5.93237 37.3139 11.8295 36.2692 17.3893 34.1476C22.2313 32.3299 26.8682 29.9104 31.5051 27.5661C40.8407 22.8497 50.4706 21.5469 60.3675 25.1901C64.9386 26.8691 69.2697 29.2451 73.6666 31.4033C80.9664 34.9673 88.5565 37.2443 96.7504 37.4463V23.0635C88.5565 22.8457 80.9548 20.5806 73.6666 17.0007Z" fill="url(#paint2_linear_4233_10021)">
    </path>
    <path d="M108.533 59.212V52.718H106V51.8973H112.03V52.718H109.497V59.212H108.533Z" fill="#0C0C20">
    </path>
    <path d="M114.278 59.2125V51.5767H115.206V55.1091H115.063C115.206 54.7166 115.455 54.3955 115.812 54.1814C116.133 53.9673 116.526 53.8603 116.99 53.8603C117.632 53.8603 118.096 54.0387 118.381 54.3598C118.667 54.6809 118.845 55.2162 118.845 55.8941V59.1768H117.917V55.9655C117.917 55.5016 117.81 55.1805 117.632 54.9664C117.454 54.7523 117.168 54.6453 116.74 54.6453C116.276 54.6453 115.919 54.788 115.634 55.0734C115.348 55.3589 115.206 55.7157 115.206 56.2152V59.2125H114.278Z" fill="#0C0C20">
    </path>
    <path d="M124.02 59.2833C123.199 59.2833 122.521 59.0335 122.057 58.5697C121.594 58.1058 121.344 57.4279 121.344 56.6072C121.344 56.072 121.451 55.5724 121.665 55.1799C121.879 54.7875 122.164 54.4663 122.557 54.2522C122.914 54.0381 123.378 53.9311 123.877 53.9311C124.341 53.9311 124.769 54.0381 125.09 54.2522C125.411 54.4663 125.661 54.7518 125.84 55.1086C126.018 55.4654 126.089 55.9293 126.089 56.4288V56.7499H122.093V56.179H125.447L125.269 56.3218C125.269 55.7865 125.162 55.3584 124.912 55.0729C124.662 54.7875 124.305 54.6447 123.877 54.6447C123.378 54.6447 122.985 54.8231 122.7 55.1799C122.414 55.5368 122.271 56.0006 122.271 56.6072V56.7142C122.271 57.3565 122.414 57.8204 122.735 58.1415C123.056 58.4626 123.485 58.641 124.056 58.641C124.377 58.641 124.662 58.6054 124.912 58.4983C125.197 58.3913 125.447 58.2486 125.697 58.0701L126.018 58.7124C125.768 58.9265 125.483 59.1049 125.126 59.2119C124.769 59.2476 124.412 59.2833 124.02 59.2833Z" fill="#0C0C20">
    </path>
    <path d="M132.725 59.212V51.8973H137.435V52.6823H133.652V55.1087H137.221V55.8937H133.652V58.427H137.435V59.212H132.725Z" fill="#0C0C20">
    </path>
    <path d="M140.005 59.2119V55.2156C140.005 55.0015 140.005 54.8231 139.97 54.609C139.97 54.3949 139.934 54.1808 139.898 54.0024H140.826L140.933 55.1085H140.826C140.969 54.716 141.218 54.4306 141.575 54.2165C141.896 54.0024 142.289 53.8954 142.753 53.8954C143.359 53.8954 143.823 54.0738 144.144 54.3949C144.465 54.716 144.608 55.2513 144.608 55.9649V59.2119H143.68V56.0362C143.68 55.5724 143.573 55.2156 143.395 55.0015C143.217 54.7874 142.931 54.6804 142.539 54.6804C142.075 54.6804 141.682 54.8231 141.433 55.1085C141.147 55.394 141.04 55.7865 141.04 56.2503V59.2119H140.005Z" fill="#0C0C20">
    </path>
    <path d="M149.781 59.2833C148.96 59.2833 148.282 59.0335 147.819 58.5697C147.355 58.1058 147.105 57.4279 147.105 56.6072C147.105 56.072 147.212 55.5724 147.426 55.1799C147.64 54.7875 147.926 54.4663 148.318 54.2522C148.675 54.0381 149.139 53.9311 149.638 53.9311C150.102 53.9311 150.53 54.0381 150.852 54.2522C151.173 54.4663 151.422 54.7518 151.601 55.1086C151.779 55.4654 151.851 55.9293 151.851 56.4288V56.7499H147.854V56.179H151.208L151.03 56.3218C151.03 55.7865 150.923 55.3584 150.673 55.0729C150.423 54.7875 150.067 54.6447 149.638 54.6447C149.139 54.6447 148.746 54.8231 148.461 55.1799C148.175 55.5368 148.033 56.0006 148.033 56.6072V56.7142C148.033 57.3565 148.175 57.8204 148.497 58.1415C148.818 58.4626 149.246 58.641 149.817 58.641C150.138 58.641 150.423 58.6054 150.673 58.4983C150.959 58.3913 151.208 58.2486 151.458 58.0701L151.779 58.7124C151.53 58.9265 151.244 59.1049 150.887 59.2119C150.53 59.2476 150.138 59.2833 149.781 59.2833Z" fill="#0C0C20">
    </path>
    <path d="M154.313 55.287C154.313 55.0729 154.313 54.8588 154.313 54.6447C154.313 54.4306 154.277 54.2165 154.241 54.0025H155.169L155.276 55.3227H155.133C155.205 55.0015 155.312 54.7518 155.49 54.5377C155.669 54.3236 155.847 54.1809 156.097 54.0738C156.346 53.9668 156.596 53.9311 156.846 53.9311C156.953 53.9311 157.06 53.9311 157.131 53.9311C157.203 53.9311 157.274 53.9668 157.346 53.9668L157.31 54.8231C157.203 54.7875 157.096 54.7518 157.024 54.7518C156.953 54.7518 156.846 54.7518 156.703 54.7518C156.382 54.7518 156.132 54.8231 155.918 54.9659C155.704 55.1086 155.526 55.287 155.419 55.5011C155.312 55.7152 155.24 55.9649 155.24 56.2504V59.2476H154.313V55.287Z" fill="#0C0C20">
    </path>
    <path d="M161.699 61.5313C161.235 61.5313 160.807 61.4599 160.45 61.3529C160.057 61.2458 159.736 61.0674 159.415 60.8533L159.665 60.1754C159.879 60.3181 160.093 60.4252 160.307 60.5322C160.521 60.6393 160.735 60.6749 160.95 60.7463C161.164 60.782 161.413 60.8177 161.663 60.8177C162.163 60.8177 162.555 60.6749 162.805 60.4252C163.055 60.1754 163.197 59.7829 163.197 59.3191V57.8561H163.304C163.197 58.2486 162.983 58.5697 162.627 58.7838C162.27 59.0336 161.877 59.1406 161.413 59.1406C160.95 59.1406 160.521 59.0336 160.2 58.8195C159.843 58.6054 159.594 58.32 159.38 57.9275C159.201 57.535 159.094 57.0711 159.094 56.5716C159.094 56.0364 159.201 55.5725 159.38 55.18C159.558 54.7875 159.843 54.5021 160.2 54.288C160.557 54.0739 160.95 53.9668 161.413 53.9668C161.877 53.9668 162.27 54.0739 162.627 54.3237C162.948 54.5377 163.197 54.8589 163.304 55.2514L163.197 55.1443L163.304 54.0382H164.232C164.197 54.2523 164.197 54.4664 164.161 54.6448C164.161 54.8589 164.125 55.073 164.125 55.2514V59.1763C164.125 59.9613 163.911 60.5322 163.519 60.9604C163.09 61.3172 162.484 61.5313 161.699 61.5313ZM161.627 58.32C162.091 58.32 162.484 58.1416 162.769 57.8204C163.055 57.4993 163.197 57.0354 163.197 56.4645C163.197 55.8936 163.055 55.4298 162.769 55.1086C162.484 54.7875 162.091 54.6448 161.627 54.6448C161.128 54.6448 160.771 54.7875 160.486 55.1086C160.2 55.4298 160.057 55.8936 160.057 56.4645C160.057 57.0354 160.2 57.4993 160.486 57.8204C160.735 58.1772 161.128 58.32 161.627 58.32Z" fill="#0C0C20">
    </path>
    <path d="M166.801 61.5666L166.587 60.8173C166.908 60.7459 167.193 60.6389 167.407 60.5675C167.621 60.4605 167.8 60.3534 167.943 60.175C168.085 60.0323 168.228 59.8182 168.335 59.5684L168.585 58.9619L168.549 59.3544L166.266 54.0378H167.265L169.084 58.498H168.799L170.619 54.0378H171.582L169.191 59.6398C169.049 59.9609 168.906 60.2464 168.728 60.4962C168.549 60.7102 168.371 60.9243 168.192 61.0671C167.978 61.2098 167.764 61.3168 167.55 61.4239C167.336 61.4239 167.051 61.4952 166.801 61.5666Z" fill="#0C0C20">
    </path>
    <path d="M179.647 59.212V52.718H177.114V51.8973H183.144V52.718H180.611V59.212H179.647Z" fill="#0C0C20">
    </path>
    <path d="M184.571 55.287C184.571 55.0729 184.571 54.8588 184.571 54.6447C184.571 54.4306 184.536 54.2165 184.5 54.0025H185.428L185.535 55.3227H185.392C185.463 55.0015 185.57 54.7518 185.749 54.5377C185.927 54.3236 186.106 54.1809 186.355 54.0738C186.605 53.9668 186.855 53.9311 187.105 53.9311C187.212 53.9311 187.319 53.9311 187.39 53.9311C187.461 53.9311 187.533 53.9668 187.604 53.9668L187.568 54.8231C187.461 54.7875 187.354 54.7518 187.283 54.7518C187.212 54.7518 187.105 54.7518 186.962 54.7518C186.641 54.7518 186.391 54.8231 186.177 54.9659C185.963 55.1086 185.784 55.287 185.677 55.5011C185.57 55.7152 185.499 55.9649 185.499 56.2504V59.2476H184.571V55.287Z" fill="#0C0C20">
    </path>
    <path d="M191.637 59.2842C191.173 59.2842 190.78 59.1771 190.424 58.963C190.067 58.749 189.817 58.4278 189.603 58.0353C189.424 57.6428 189.317 57.1433 189.317 56.5724C189.317 56.0015 189.424 55.5376 189.603 55.1094C189.781 54.717 190.067 54.3958 190.424 54.1817C190.78 53.9676 191.173 53.8606 191.637 53.8606C192.101 53.8606 192.493 53.9676 192.85 54.2174C193.207 54.4315 193.421 54.7526 193.528 55.1808H193.421L193.528 53.9676H194.456C194.42 54.1817 194.42 54.3958 194.384 54.5742C194.349 54.7526 194.349 55.0024 194.349 55.1808V59.1771H193.421V57.9996H193.528C193.421 58.3921 193.207 58.7133 192.85 58.9274C192.493 59.1771 192.101 59.2842 191.637 59.2842ZM191.851 58.5349C192.315 58.5349 192.707 58.3565 192.993 58.0353C193.278 57.7142 193.421 57.2146 193.421 56.5724C193.421 55.9301 193.278 55.4306 192.993 55.1094C192.707 54.7883 192.35 54.6099 191.851 54.6099C191.387 54.6099 190.994 54.7883 190.709 55.1094C190.424 55.4306 190.281 55.9301 190.281 56.5724C190.281 57.2146 190.424 57.7142 190.709 58.0353C190.994 58.3921 191.387 58.5349 191.851 58.5349Z" fill="#0C0C20">
    </path>
    <path d="M197.202 59.2119V55.2156C197.202 55.0015 197.202 54.8231 197.166 54.609C197.166 54.3949 197.131 54.1808 197.095 54.0024H198.023L198.13 55.1085H198.023C198.166 54.716 198.415 54.4306 198.772 54.2165C199.093 54.0024 199.486 53.8954 199.95 53.8954C200.556 53.8954 201.02 54.0738 201.341 54.3949C201.662 54.716 201.805 55.2513 201.805 55.9649V59.2119H200.842V56.0362C200.842 55.5724 200.735 55.2156 200.556 55.0015C200.378 54.7874 200.092 54.6804 199.7 54.6804C199.236 54.6804 198.843 54.8231 198.594 55.1085C198.308 55.394 198.201 55.7865 198.201 56.2503V59.2119H197.202Z" fill="#0C0C20">
    </path>
    <path d="M206.371 59.2842C205.943 59.2842 205.551 59.2128 205.194 59.1058C204.837 58.9987 204.516 58.8203 204.302 58.6419L204.587 57.9996C204.837 58.178 205.123 58.3565 205.444 58.4278C205.765 58.5349 206.05 58.5705 206.407 58.5705C206.8 58.5705 207.085 58.4992 207.299 58.3565C207.513 58.2137 207.62 58.0353 207.62 57.7856C207.62 57.6071 207.549 57.4287 207.406 57.3217C207.263 57.2146 207.085 57.1076 206.8 57.0719L205.8 56.8578C205.372 56.7508 205.015 56.5724 204.801 56.3583C204.587 56.1442 204.48 55.8231 204.48 55.4663C204.48 55.1451 204.552 54.8954 204.73 54.6456C204.908 54.3958 205.123 54.2174 205.444 54.0747C205.765 53.932 206.122 53.8606 206.514 53.8606C206.907 53.8606 207.263 53.932 207.585 54.039C207.906 54.146 208.191 54.3245 208.405 54.5385L208.084 55.1808C207.87 55.0024 207.62 54.8597 207.37 54.7526C207.121 54.6456 206.835 54.6099 206.55 54.6099C206.157 54.6099 205.836 54.6813 205.658 54.8597C205.479 55.0024 205.372 55.2165 205.372 55.4663C205.372 55.6447 205.444 55.8231 205.551 55.9301C205.658 56.0372 205.872 56.1442 206.122 56.2156L207.121 56.4297C207.585 56.5367 207.941 56.6794 208.155 56.8935C208.405 57.1076 208.512 57.3931 208.512 57.7856C208.512 58.1067 208.441 58.3921 208.262 58.6419C208.084 58.8917 207.834 59.0701 207.513 59.1771C207.156 59.2485 206.764 59.2842 206.371 59.2842Z" fill="#0C0C20">
    </path>
    <path d="M210.938 52.8607V51.8616H212.044V52.8607H210.938ZM211.045 59.212V54.0025H211.973V59.212H211.045Z" fill="#0C0C20">
    </path>
    <path d="M216.79 59.2831C216.255 59.2831 215.827 59.1404 215.541 58.8193C215.256 58.5338 215.113 58.0699 215.113 57.4634V54.6802H214.114V53.9666H215.113V52.575L216.041 52.3252V53.9666H217.504V54.6802H216.041V57.3563C216.041 57.7488 216.112 58.0343 216.255 58.2127C216.398 58.3911 216.612 58.4624 216.862 58.4624C217.004 58.4624 217.111 58.4624 217.219 58.4268C217.326 58.3911 217.397 58.3554 217.504 58.3554V59.1404C217.397 59.1761 217.29 59.2118 217.147 59.2474C217.04 59.2831 216.897 59.2831 216.79 59.2831Z" fill="#0C0C20">
    </path>
    <path d="M219.716 52.8607V51.8616H220.822V52.8607H219.716ZM219.823 59.212V54.0025H220.751V59.212H219.823Z" fill="#0C0C20">
    </path>
    <path d="M225.818 59.2833C225.319 59.2833 224.855 59.1762 224.498 58.9621C224.141 58.748 223.82 58.4269 223.642 58.0344C223.428 57.6419 223.32 57.1424 223.32 56.5715C223.32 56.0362 223.428 55.5367 223.642 55.1442C223.856 54.7517 224.141 54.4306 224.498 54.2165C224.855 54.0024 225.319 53.8954 225.818 53.8954C226.318 53.8954 226.782 54.0024 227.138 54.2165C227.531 54.4306 227.816 54.7517 227.995 55.1442C228.209 55.5367 228.316 56.0362 228.316 56.5715C228.316 57.1424 228.209 57.6062 227.995 58.0344C227.781 58.4269 227.495 58.748 227.138 58.9621C226.782 59.1762 226.318 59.2833 225.818 59.2833ZM225.818 58.5339C226.282 58.5339 226.675 58.3555 226.96 58.0344C227.245 57.7133 227.388 57.2137 227.388 56.5715C227.388 55.9292 227.245 55.4297 226.96 55.1085C226.675 54.7874 226.318 54.609 225.818 54.609C225.354 54.609 224.962 54.7874 224.676 55.1085C224.391 55.4297 224.248 55.9292 224.248 56.5715C224.248 57.2137 224.391 57.7133 224.676 58.0344C224.962 58.3912 225.319 58.5339 225.818 58.5339Z" fill="#0C0C20">
    </path>
    <path d="M230.885 59.2119V55.2156C230.885 55.0015 230.885 54.8231 230.849 54.609C230.849 54.3949 230.814 54.1808 230.778 54.0024H231.706L231.813 55.1085H231.706C231.848 54.716 232.098 54.4306 232.455 54.2165C232.776 54.0024 233.169 53.8954 233.632 53.8954C234.239 53.8954 234.703 54.0738 235.024 54.3949C235.345 54.716 235.488 55.2513 235.488 55.9649V59.2119H234.56V56.0362C234.56 55.5724 234.453 55.2156 234.275 55.0015C234.096 54.7874 233.811 54.6804 233.418 54.6804C232.954 54.6804 232.562 54.8231 232.312 55.1085C232.027 55.394 231.92 55.7865 231.92 56.2503V59.2119H230.885Z" fill="#0C0C20">
    </path>
    <path d="M244.801 59.2833C244.23 59.2833 243.695 59.2119 243.231 59.0692C242.767 58.9265 242.339 58.7124 242.018 58.4269L242.339 57.6419C242.589 57.8203 242.839 57.9631 243.088 58.1058C243.338 58.2128 243.588 58.3199 243.909 58.3912C244.194 58.4626 244.516 58.4626 244.837 58.4626C245.443 58.4626 245.872 58.3556 246.157 58.1415C246.442 57.9274 246.585 57.6419 246.585 57.2851C246.585 56.964 246.478 56.7499 246.3 56.5715C246.086 56.3931 245.764 56.286 245.265 56.179L244.159 55.9649C243.481 55.8222 242.981 55.6081 242.66 55.287C242.339 54.9658 242.161 54.5376 242.161 54.0024C242.161 53.5742 242.268 53.1818 242.517 52.8606C242.767 52.5395 243.053 52.2897 243.481 52.1113C243.909 51.9329 244.373 51.8259 244.944 51.8259C245.443 51.8259 245.943 51.8972 246.371 52.0399C246.799 52.1827 247.156 52.4324 247.477 52.7179L247.156 53.4672C246.835 53.1818 246.514 52.9677 246.157 52.8606C245.8 52.7179 245.408 52.6822 244.944 52.6822C244.409 52.6822 243.98 52.7893 243.659 53.039C243.338 53.2888 243.195 53.5742 243.195 54.0024C243.195 54.3236 243.302 54.5733 243.481 54.7517C243.695 54.9301 244.016 55.0729 244.48 55.1799L245.586 55.394C246.3 55.5367 246.799 55.7508 247.12 56.0363C247.441 56.3217 247.62 56.7499 247.62 57.2851C247.62 57.7133 247.513 58.0701 247.299 58.3912C247.085 58.7124 246.764 58.9621 246.371 59.1049C245.836 59.2119 245.372 59.2833 244.801 59.2833Z" fill="#0C0C20">
    </path>
    <path d="M250.081 55.2156C250.081 55.0015 250.081 54.8231 250.045 54.609C250.045 54.3949 250.009 54.1808 249.974 54.0024H250.901L251.008 55.2156H250.901C251.009 54.8231 251.223 54.5019 251.579 54.2522C251.936 54.0024 252.329 53.8954 252.793 53.8954C253.256 53.8954 253.649 54.0024 254.006 54.2165C254.363 54.4306 254.612 54.7517 254.826 55.1442C255.005 55.5367 255.112 56.0362 255.112 56.6071C255.112 57.1781 255.005 57.6419 254.826 58.0701C254.648 58.4626 254.363 58.7837 254.006 58.9978C253.649 59.2119 253.256 59.3189 252.793 59.3189C252.329 59.3189 251.936 59.2119 251.579 58.9621C251.258 58.748 251.009 58.4269 250.901 58.0344H251.008V61.4598H250.081V55.2156ZM252.578 58.5339C253.042 58.5339 253.435 58.3555 253.72 58.0344C254.006 57.7133 254.148 57.2137 254.148 56.5715C254.148 55.9292 254.006 55.4297 253.72 55.1085C253.435 54.7874 253.042 54.609 252.578 54.609C252.115 54.609 251.722 54.7874 251.437 55.1085C251.151 55.4297 251.008 55.9292 251.008 56.5715C251.008 57.2137 251.151 57.7133 251.437 58.0344C251.722 58.3912 252.079 58.5339 252.578 58.5339Z" fill="#0C0C20">
    </path>
    <path d="M260.001 59.2833C259.18 59.2833 258.502 59.0335 258.038 58.5697C257.574 58.1058 257.324 57.4279 257.324 56.6072C257.324 56.072 257.432 55.5724 257.646 55.1799C257.86 54.7875 258.145 54.4663 258.538 54.2522C258.894 54.0381 259.358 53.9311 259.858 53.9311C260.322 53.9311 260.75 54.0381 261.071 54.2522C261.392 54.4663 261.642 54.7518 261.82 55.1086C261.999 55.4654 262.07 55.9293 262.07 56.4288V56.7499H258.074V56.179H261.428L261.249 56.3218C261.249 55.7865 261.142 55.3584 260.893 55.0729C260.643 54.7875 260.286 54.6447 259.858 54.6447C259.358 54.6447 258.966 54.8231 258.68 55.1799C258.395 55.5368 258.252 56.0006 258.252 56.6072V56.7142C258.252 57.3565 258.395 57.8204 258.716 58.1415C259.037 58.4626 259.465 58.641 260.036 58.641C260.357 58.641 260.643 58.6054 260.893 58.4983C261.178 58.3913 261.428 58.2486 261.678 58.0701L261.999 58.7124C261.749 58.9265 261.464 59.1049 261.107 59.2119C260.75 59.2476 260.393 59.2833 260.001 59.2833Z" fill="#0C0C20">
    </path>
    <path d="M266.816 59.2833C266.281 59.2833 265.853 59.1762 265.46 58.9621C265.068 58.748 264.782 58.4269 264.568 58.0344C264.354 57.6062 264.247 57.1424 264.247 56.5715C264.247 56.0006 264.354 55.5367 264.568 55.1442C264.782 54.7517 265.068 54.4306 265.46 54.2165C265.853 54.0024 266.281 53.8954 266.781 53.8954C267.102 53.8954 267.459 53.9667 267.78 54.0738C268.101 54.1808 268.351 54.3592 268.565 54.5733L268.244 55.2513C268.029 55.0728 267.815 54.9301 267.566 54.8231C267.316 54.716 267.102 54.6804 266.852 54.6804C266.352 54.6804 265.924 54.8588 265.639 55.1799C265.353 55.501 265.211 56.0006 265.211 56.6071C265.211 57.2494 265.353 57.7133 265.639 58.0701C265.924 58.4269 266.317 58.5696 266.852 58.5696C267.066 58.5696 267.316 58.5339 267.566 58.4269C267.815 58.3199 268.029 58.2128 268.244 57.9987L268.565 58.641C268.351 58.8551 268.101 59.0335 267.78 59.1405C267.459 59.2476 267.137 59.2833 266.816 59.2833Z" fill="#0C0C20">
    </path>
    <path d="M270.919 52.8607V51.8616H272.025V52.8607H270.919ZM270.991 59.212V54.0025H271.918V59.212H270.991Z" fill="#0C0C20">
    </path>
    <path d="M276.808 59.2842C276.344 59.2842 275.951 59.1771 275.595 58.963C275.238 58.749 274.988 58.4278 274.774 58.0353C274.596 57.6428 274.489 57.1433 274.489 56.5724C274.489 56.0015 274.596 55.5376 274.774 55.1094C274.952 54.717 275.238 54.3958 275.595 54.1817C275.951 53.9676 276.344 53.8606 276.808 53.8606C277.272 53.8606 277.664 53.9676 278.021 54.2174C278.378 54.4315 278.592 54.7526 278.699 55.1808H278.592L278.699 53.9676H279.627C279.591 54.1817 279.591 54.3958 279.555 54.5742C279.52 54.7526 279.52 55.0024 279.52 55.1808V59.1771H278.592V57.9996H278.699C278.592 58.3921 278.378 58.7133 278.021 58.9274C277.664 59.1771 277.236 59.2842 276.808 59.2842ZM277.022 58.5349C277.486 58.5349 277.878 58.3565 278.164 58.0353C278.449 57.7142 278.592 57.2146 278.592 56.5724C278.592 55.9301 278.449 55.4306 278.164 55.1094C277.878 54.7883 277.521 54.6099 277.022 54.6099C276.558 54.6099 276.166 54.7883 275.88 55.1094C275.595 55.4306 275.452 55.9301 275.452 56.5724C275.452 57.2146 275.595 57.7142 275.88 58.0353C276.166 58.3921 276.522 58.5349 277.022 58.5349Z" fill="#0C0C20">
    </path>
    <path d="M282.372 59.2125V51.5767H283.3V59.2125H282.372Z" fill="#0C0C20">
    </path>
    <path d="M286.084 52.8607V51.8616H287.19V52.8607H286.084ZM286.155 59.212V54.0025H287.083V59.212H286.155Z" fill="#0C0C20">
    </path>
    <path d="M291.723 59.2842C291.294 59.2842 290.902 59.2128 290.545 59.1058C290.188 58.9987 289.867 58.8203 289.653 58.6419L289.939 57.9996C290.188 58.178 290.474 58.3565 290.795 58.4278C291.116 58.5349 291.401 58.5705 291.758 58.5705C292.151 58.5705 292.436 58.4992 292.65 58.3565C292.864 58.2137 292.971 58.0353 292.971 57.7856C292.971 57.6071 292.9 57.4287 292.757 57.3217C292.615 57.2146 292.436 57.1076 292.151 57.0719L291.152 56.8578C290.723 56.7508 290.367 56.5724 290.153 56.3583C289.938 56.1442 289.831 55.8231 289.831 55.4663C289.831 55.1451 289.903 54.8954 290.081 54.6456C290.26 54.3958 290.474 54.2174 290.795 54.0747C291.116 53.932 291.473 53.8606 291.865 53.8606C292.258 53.8606 292.615 53.932 292.936 54.039C293.257 54.146 293.542 54.3245 293.756 54.5385L293.435 55.1808C293.221 55.0024 292.971 54.8597 292.722 54.7526C292.472 54.6456 292.186 54.6099 291.901 54.6099C291.508 54.6099 291.187 54.6813 291.009 54.8597C290.831 55.0024 290.724 55.2165 290.724 55.4663C290.724 55.6447 290.795 55.8231 290.902 55.9301C291.009 56.0372 291.223 56.1442 291.473 56.2156L292.472 56.4297C292.936 56.5367 293.293 56.6794 293.507 56.8935C293.721 57.1076 293.863 57.3931 293.863 57.7856C293.863 58.1067 293.792 58.3921 293.614 58.6419C293.435 58.8917 293.186 59.0701 292.864 59.1771C292.508 59.2485 292.151 59.2842 291.723 59.2842Z" fill="#0C0C20">
    </path>
    <path d="M298.286 59.2831C297.751 59.2831 297.323 59.1404 297.038 58.8193C296.752 58.5338 296.609 58.0699 296.609 57.4634V54.6802H295.61V53.9666H296.609V52.575L297.537 52.3252V53.9666H299V54.6802H297.537V57.3563C297.537 57.7488 297.609 58.0343 297.751 58.2127C297.894 58.3911 298.108 58.4624 298.358 58.4624C298.501 58.4624 298.608 58.4624 298.715 58.4268C298.822 58.3911 298.893 58.3554 299 58.3554V59.1404C298.893 59.1761 298.786 59.2118 298.643 59.2474C298.536 59.2831 298.429 59.2831 298.286 59.2831Z" fill="#0C0C20">
    </path>
  </g>
  <defs>
    <linearGradient id="paint0_linear_4233_10021" x1="-0.00195312" y1="8.33339" x2="96.7494" y2="8.33339" gradientUnits="userSpaceOnUse">
      <stop offset="0.02" stop-color="#20B573">
      </stop>
      <stop offset="0.14" stop-color="#40BC92">
      </stop>
      <stop offset="0.33" stop-color="#6FC7BF">
      </stop>
      <stop offset="0.5" stop-color="#64B0BA">
      </stop>
      <stop offset="0.85" stop-color="#4974AE">
      </stop>
      <stop offset="1" stop-color="#3D59A8">
      </stop>
    </linearGradient>
    <linearGradient id="paint1_linear_4233_10021" x1="-0.000976562" y1="12.6925" x2="96.7504" y2="12.6925" gradientUnits="userSpaceOnUse">
      <stop offset="0.02" stop-color="#20B573">
      </stop>
      <stop offset="0.14" stop-color="#40BC92">
      </stop>
      <stop offset="0.33" stop-color="#6FC7BF">
      </stop>
      <stop offset="0.5" stop-color="#64B0BA">
      </stop>
      <stop offset="0.85" stop-color="#4974AE">
      </stop>
      <stop offset="1" stop-color="#3D59A8">
      </stop>
    </linearGradient>
    <linearGradient id="paint2_linear_4233_10021" x1="-0.000976562" y1="23.0675" x2="96.7504" y2="23.0675" gradientUnits="userSpaceOnUse">
      <stop offset="0.02" stop-color="#20B573">
      </stop>
      <stop offset="0.14" stop-color="#40BC92">
      </stop>
      <stop offset="0.33" stop-color="#6FC7BF">
      </stop>
      <stop offset="0.5" stop-color="#64B0BA">
      </stop>
      <stop offset="0.85" stop-color="#4974AE">
      </stop>
      <stop offset="1" stop-color="#3D59A8">
      </stop>
    </linearGradient>
    <clipPath id="clip0_4233_10021">
      <rect width="300" height="63" fill="white">
      </rect>
    </clipPath>
  </defs>
</svg>